<svg width="206" height="41" viewBox="0 0 206 41" fill="none" xmlns="http://www.w3.org/2000/svg">
<g clip-path="url(#clip0_42_1010)">
<path d="M33.14 26.1719C33.9764 25.878 34.7192 25.5124 35.3669 25.0752C36.0147 24.6395 36.5031 24.2213 36.8335 23.8206V20.674C36.079 21.4519 35.1535 22.1654 34.0583 22.8132C32.9616 23.4624 31.7772 23.7855 30.5051 23.7855C29.233 23.7855 28.1597 23.4843 27.2166 22.8834C26.2735 22.2824 25.5483 21.4928 25.0423 20.5146C24.6914 19.8391 24.4662 19.1255 24.358 18.3754H37.9302V16.6427C37.9302 15.0167 37.629 13.5545 37.0295 12.259C36.4285 10.9635 35.5263 9.93702 34.3244 9.18253C33.1225 8.42803 31.6135 8.05078 29.7989 8.05078C28.148 8.05078 26.6815 8.47482 25.3976 9.32436C24.1124 10.1724 23.1049 11.3042 22.3753 12.7181C21.6442 14.1321 21.2786 15.6762 21.2786 17.3504C21.2786 18.6006 21.5023 19.785 21.9498 20.9035C22.3972 22.0236 23.0391 23.0135 23.877 23.8733C24.7133 24.7345 25.6916 25.4057 26.8116 25.8882C27.9302 26.3707 29.1628 26.6134 30.5066 26.6134C31.4263 26.6134 32.3036 26.4658 33.1415 26.1719H33.14ZM24.9546 14.1511C25.402 13.1729 26.0381 12.3833 26.8642 11.7823C27.6889 11.1814 28.6671 10.8801 29.7989 10.8801C30.6236 10.8801 31.4131 11.0629 32.1676 11.4285C32.9221 11.794 33.564 12.3423 34.0948 13.072C34.6256 13.8031 34.9488 14.7462 35.0672 15.8999H24.4121C24.5218 15.2887 24.7016 14.7038 24.9546 14.1496V14.1511Z" fill="#252A34"/>
<path d="M43.1415 0.627197H40.2419V26.0841H43.1415V0.627197Z" fill="#252A34"/>
<path d="M101.866 3.21826H52.0901V5.24049H98.8982C100.537 5.24049 101.865 4.33538 101.865 3.21826H101.866Z" fill="#FF2E63"/>
<path d="M117.432 3.20947H104.968V5.24924H117.432V3.20947Z" fill="#FF2E63"/>
<path d="M49.5883 0.627197H46.6888V26.0841H49.5883V0.627197Z" fill="#252A34"/>
<path d="M54.8698 26.0842H57.7693V11.1287V8.40613H54.8698H52.077V11.1287H54.8698V26.0842Z" fill="#252A34"/>
<path d="M76.7677 15.3004C76.7677 13.6744 76.4724 12.3248 75.8831 11.2515C75.2938 10.1797 74.5042 9.37846 73.5143 8.84768C72.5244 8.3169 71.4292 8.05225 70.2258 8.05225C69.4245 8.05225 68.6525 8.21747 67.9097 8.54793C67.1669 8.87839 66.5016 9.28488 65.9123 9.76741C65.3231 10.2514 64.8391 10.7281 64.4633 11.1989V8.4061H61.5638V26.0841H64.4633V14.3456C65.171 13.4258 65.9884 12.6187 66.9213 11.9242C67.8527 11.2296 68.7885 10.8816 69.7316 10.8816C71.1222 10.8816 72.153 11.2823 72.8256 12.0835C73.4968 12.8848 73.8331 14.0517 73.8331 15.584L73.8682 26.0856H76.7677V15.3018V15.3004Z" fill="#252A34"/>
<path d="M92.868 10.7749C92.1136 9.92679 91.2114 9.26002 90.163 8.7775C89.1146 8.29497 88.0823 8.05225 87.069 8.05225C85.4664 8.05225 84.0159 8.43534 82.7204 9.20154C81.4234 9.96773 80.4042 11.0585 79.6614 12.4725C78.9186 13.8864 78.5472 15.5724 78.5472 17.5288C78.5472 19.32 78.9186 20.8992 79.6614 22.2663C80.4042 23.6335 81.4 24.7009 82.6487 25.4656C83.8974 26.2318 85.2763 26.6149 86.7853 26.6149C88.129 26.6149 89.3251 26.261 90.3735 25.5548C91.4219 24.8471 92.2525 24.0224 92.8666 23.0793V26.0841H95.7661V8.4061H92.8666V10.7749H92.868ZM92.1603 20.5862C91.6647 21.5878 90.9935 22.3716 90.1454 22.9375C89.2973 23.5033 88.3294 23.7855 87.2459 23.7855C86.1624 23.7855 85.1184 23.5033 84.2586 22.9375C83.3974 22.3716 82.7321 21.6112 82.2612 20.6564C81.7889 19.7016 81.5535 18.6591 81.5535 17.5273C81.5535 16.3956 81.7948 15.2945 82.2788 14.2929C82.7613 13.2913 83.4515 12.4725 84.3463 11.835C85.2427 11.1989 86.3262 10.8801 87.5997 10.8801C88.6832 10.8801 89.6439 11.1404 90.4817 11.658C91.3181 12.1771 92.1018 12.8951 92.8329 13.8148L92.868 17.2086C92.8914 18.4587 92.656 19.5832 92.1603 20.5848V20.5862Z" fill="#252A34"/>
<path d="M114.532 8.40609H104.196V3.3147H102.852C102.263 5.0591 101.578 6.52716 100.802 7.71593C100.024 8.90616 99.0575 9.76155 97.9024 10.2792V11.1272H101.296V21.6288C101.296 22.6187 101.496 23.4916 101.897 24.2447C102.298 24.9992 102.864 25.5826 103.595 25.9949C104.324 26.4073 105.186 26.6134 106.176 26.6134C107.07 26.6134 107.838 26.5301 108.474 26.3663C109.11 26.2011 109.664 25.9306 110.137 25.5533V23.0076C109.783 23.2197 109.318 23.4141 108.74 23.5911C108.163 23.768 107.521 23.8557 106.813 23.8557C106.035 23.8557 105.405 23.6437 104.921 23.2197C104.438 22.7956 104.196 22.218 104.196 21.4869V11.1272H109.888V11.1214H111.739V11.1272H114.532V26.0826H117.432V8.40609H114.532Z" fill="#252A34"/>
<path d="M17.202 14.1803C16.4797 13.7081 15.7457 13.3966 14.9985 13.2475C16.0439 12.7503 16.9154 11.9958 17.6114 10.9884C18.3074 9.9809 18.6569 8.86671 18.6569 7.64723C18.6569 6.27861 18.284 5.07083 17.5369 4.02535C16.7897 2.97988 15.7383 2.15227 14.3814 1.54254C13.026 0.932798 11.4263 0.627197 9.58393 0.627197C8.06471 0.627197 6.54109 0.707618 5.01017 0.869923C3.47924 1.03223 2.06675 1.26179 0.772705 1.56008V25.6806C1.56961 25.8546 2.47763 26.011 3.49825 26.147C4.51887 26.283 5.58335 26.3956 6.69024 26.4833C7.79712 26.5696 8.86161 26.6135 9.88222 26.6135C11.8986 26.6135 13.6474 26.283 15.1286 25.6235C16.6098 24.9641 17.7474 24.0736 18.5443 22.9536C19.3412 21.8335 19.7389 20.5775 19.7389 19.1825C19.7389 17.9631 19.4962 16.9424 19.0108 16.1207C18.5253 15.2989 17.9214 14.6526 17.2005 14.1789L17.202 14.1803ZM6.54109 3.91277C7.37455 3.83819 8.31474 3.80018 9.36022 3.80018C10.4057 3.80018 11.3707 3.94932 12.2539 4.24761C13.1371 4.5459 13.8536 4.98895 14.4004 5.57236C14.9473 6.15725 15.2222 6.89858 15.2222 7.79345C15.2222 8.93835 14.7748 9.93996 13.8784 10.7997C12.9821 11.658 11.688 12.0879 9.99481 12.0879H4.13285V4.24907C4.90343 4.09993 5.70617 3.98734 6.54109 3.91277ZM14.4575 22.2824C13.2248 23.0545 11.6763 23.4405 9.80911 23.4405C9.36168 23.4405 8.80751 23.4288 8.14805 23.4039C7.4886 23.3791 6.80429 23.3293 6.09512 23.2548C5.38595 23.1802 4.73235 23.0925 4.13431 22.993V15.0781H10.0708C11.8123 15.0781 13.2877 15.4203 14.4955 16.1046C15.7032 16.7889 16.3057 17.8168 16.3057 19.1855C16.3057 20.4795 15.6901 21.5133 14.4575 22.2839V22.2824Z" fill="#252A34"/>
<path d="M2.48933 36.8694L2.07406 36.7466C1.82403 36.6735 1.64417 36.5872 1.53305 36.4878C1.42192 36.3883 1.36636 36.2582 1.36636 36.0988C1.36636 35.8985 1.44385 35.7406 1.59738 35.6251C1.75238 35.5095 1.96001 35.4511 2.22467 35.4511C2.45131 35.4511 2.66187 35.4847 2.85488 35.5534C3.04789 35.6221 3.20142 35.7011 3.31401 35.7917C3.36372 35.764 3.40467 35.7274 3.43683 35.6792C3.469 35.6309 3.48509 35.5783 3.48509 35.5183C3.48509 35.4277 3.42952 35.3414 3.3184 35.2595C3.20727 35.1776 3.0552 35.1104 2.86219 35.0577C2.66918 35.0051 2.44985 34.9788 2.2042 34.9788C1.78162 34.9788 1.44385 35.0782 1.18943 35.2756C0.935007 35.473 0.807795 35.7464 0.807795 36.0959C0.807795 36.2816 0.845813 36.4439 0.920385 36.5828C0.994957 36.7217 1.10316 36.8372 1.24353 36.9308C1.3839 37.0244 1.55059 37.1004 1.74068 37.1589L2.33287 37.3358C2.59168 37.4089 2.78177 37.5054 2.90167 37.6283C3.02157 37.7511 3.08152 37.9046 3.08152 38.0918C3.08152 38.3097 3.00256 38.488 2.8461 38.627C2.68965 38.7659 2.45862 38.8346 2.15448 38.8346C1.87666 38.8346 1.64417 38.7863 1.45263 38.6884C1.26254 38.5904 1.11486 38.4924 1.00958 38.3915C0.945242 38.4149 0.889679 38.4515 0.842888 38.5041C0.794635 38.5568 0.77124 38.6211 0.77124 38.6986C0.77124 38.7893 0.829728 38.8814 0.945242 38.975C1.06076 39.0685 1.2216 39.1446 1.42923 39.206C1.6354 39.2674 1.87813 39.2981 2.15448 39.2981C2.62677 39.2981 2.99379 39.187 3.25406 38.9647C3.51579 38.7425 3.64593 38.4515 3.64593 38.0933C3.64593 37.7569 3.54211 37.4937 3.33594 37.3037C3.12977 37.1136 2.8461 36.9674 2.48787 36.8679L2.48933 36.8694Z" fill="#252A34"/>
<path d="M9.89393 38.7497H7.84977V37.3197H9.49767C9.56639 37.3197 9.61757 37.2977 9.65413 37.2509C9.69068 37.2056 9.70823 37.1471 9.70823 37.074C9.70823 37.0287 9.70092 36.9848 9.68776 36.9439C9.6746 36.9029 9.65997 36.8737 9.64681 36.8547H7.84831V35.5402H9.70823C9.77695 35.5402 9.82813 35.5168 9.86468 35.4685C9.90124 35.4203 9.91878 35.3603 9.91878 35.2887C9.91878 35.2433 9.91147 35.1995 9.89831 35.1585C9.88515 35.1176 9.87053 35.0883 9.85737 35.0693H7.59534C7.50469 35.0693 7.43158 35.0971 7.37748 35.1512C7.32337 35.2053 7.29559 35.2784 7.29559 35.3691V38.912C7.29559 38.9983 7.32337 39.0699 7.37748 39.1269C7.43158 39.184 7.50469 39.2118 7.59534 39.2118H9.74186C9.81058 39.2118 9.86176 39.1884 9.89831 39.143C9.93487 39.0977 9.95241 39.0392 9.95241 38.9661C9.95241 38.9164 9.9451 38.8725 9.93194 38.833C9.91878 38.795 9.90416 38.7658 9.891 38.7482L9.89393 38.7497Z" fill="#252A34"/>
<path d="M16.1887 38.2657C16.0615 38.1019 15.9299 37.9338 15.7939 37.7612C15.7398 37.694 15.6901 37.6311 15.6389 37.5653C15.7252 37.5419 15.8085 37.5156 15.8831 37.482C16.1244 37.3738 16.3057 37.2188 16.4285 37.0184C16.5513 36.8181 16.6127 36.5842 16.6127 36.3166C16.6127 35.8984 16.4724 35.5738 16.1902 35.3428C15.908 35.1117 15.4839 34.9948 14.9166 34.9948C14.7353 34.9948 14.5481 35.0035 14.3551 35.0225C14.1621 35.0401 13.9998 35.0708 13.8682 35.1117C13.7951 35.1351 13.7395 35.1658 13.7015 35.2038C13.6635 35.2419 13.643 35.2989 13.643 35.3705V38.9953C13.643 39.0816 13.6679 39.1459 13.7176 39.1854C13.7673 39.2264 13.8419 39.2468 13.9428 39.2468C13.9969 39.2468 14.0466 39.241 14.0934 39.2293C14.1387 39.2176 14.1752 39.2074 14.203 39.1986V37.6457H14.9795C15.0262 37.6457 15.0701 37.6428 15.1154 37.6399L16.1097 39.0348C16.1638 39.1079 16.2165 39.1635 16.2662 39.2015C16.3159 39.2395 16.3802 39.26 16.4563 39.26C16.5192 39.26 16.582 39.2366 16.6434 39.1913C16.7049 39.1459 16.7443 39.0845 16.7633 39.007C16.7092 38.9339 16.6317 38.833 16.5323 38.7044C16.4329 38.5742 16.3188 38.428 16.1916 38.2642L16.1887 38.2657ZM14.1928 37.1822V35.5197C14.2878 35.5021 14.3975 35.4875 14.5233 35.4758C14.6475 35.4641 14.7718 35.4583 14.8947 35.4583C15.2675 35.4583 15.5526 35.5314 15.753 35.6761C15.9533 35.8209 16.0527 36.0344 16.0527 36.3166C16.0527 36.5988 15.9577 36.8181 15.7661 36.9643C15.576 37.1091 15.3114 37.1822 14.9765 37.1822H14.1928Z" fill="#252A34"/>
<path d="M20.644 35.0358C20.5899 35.0358 20.5388 35.0416 20.4905 35.0533C20.4422 35.065 20.4072 35.0752 20.3852 35.084V38.9939C20.3852 39.0802 20.4101 39.1446 20.4598 39.184C20.5095 39.225 20.5841 39.2454 20.685 39.2454C20.7391 39.2454 20.7888 39.2396 20.8341 39.2279C20.8794 39.2162 20.9131 39.206 20.9365 39.1972V35.2873C20.9365 35.1966 20.9131 35.1323 20.8648 35.0928C20.8166 35.0548 20.7435 35.0343 20.644 35.0343V35.0358Z" fill="#252A34"/>
<path d="M27.4827 38.7497H25.4386V37.3197H27.0865C27.1552 37.3197 27.2064 37.2977 27.2429 37.2509C27.2795 37.2056 27.297 37.1471 27.297 37.074C27.297 37.0287 27.2897 36.9848 27.2766 36.9439C27.2634 36.9029 27.2488 36.8737 27.2356 36.8547H25.4371V35.5402H27.297C27.3658 35.5402 27.4169 35.5168 27.4535 35.4685C27.49 35.4203 27.5076 35.3603 27.5076 35.2887C27.5076 35.2433 27.5003 35.1995 27.4871 35.1585C27.474 35.1176 27.4593 35.0883 27.4462 35.0693H25.1842C25.0935 35.0693 25.0204 35.0971 24.9663 35.1512C24.9122 35.2053 24.8844 35.2784 24.8844 35.3691V38.912C24.8844 38.9983 24.9122 39.0699 24.9663 39.1269C25.0204 39.184 25.0935 39.2118 25.1842 39.2118H27.3307C27.3994 39.2118 27.4506 39.1884 27.4871 39.143C27.5237 39.0977 27.5412 39.0392 27.5412 38.9661C27.5412 38.9164 27.5339 38.8725 27.5207 38.833C27.5076 38.795 27.493 38.7658 27.4798 38.7482L27.4827 38.7497Z" fill="#252A34"/>
<path d="M33.6313 35.2302C33.2979 35.0737 32.9075 34.9948 32.463 34.9948C32.2861 34.9948 32.1092 35.0021 31.9322 35.0152C31.7553 35.0284 31.5959 35.0591 31.4556 35.1044C31.3824 35.1278 31.3269 35.1585 31.2889 35.1965C31.2508 35.2346 31.2304 35.2916 31.2304 35.3632V38.8652C31.2304 39.0158 31.3254 39.1196 31.517 39.1781C31.6807 39.2278 31.8547 39.2585 32.0375 39.2702C32.2218 39.2819 32.3841 39.2878 32.5244 39.2878C32.9645 39.2878 33.3476 39.2088 33.6723 39.0494C33.9969 38.8901 34.2484 38.6488 34.4282 38.3242C34.6081 37.9996 34.6973 37.5902 34.6973 37.0945C34.6973 36.6266 34.6022 36.2391 34.4151 35.9291C34.2264 35.6206 33.9662 35.3881 33.6313 35.2302ZM33.7234 38.3841C33.4515 38.6766 33.0494 38.8228 32.5171 38.8228C32.3855 38.8228 32.2568 38.8184 32.1326 38.8096C32.0068 38.8009 31.8913 38.7819 31.7816 38.7555V35.5124C31.8723 35.4948 31.9717 35.4802 32.0814 35.4714C32.191 35.4627 32.3153 35.4583 32.4557 35.4583C32.7642 35.4583 33.045 35.5138 33.2965 35.625C33.548 35.7361 33.7512 35.9116 33.9033 36.1499C34.0554 36.3882 34.1314 36.7026 34.1314 37.093C34.1314 37.6603 33.9954 38.0917 33.722 38.3841H33.7234Z" fill="#252A34"/>
<path d="M40.9028 37.1516C40.7756 36.7904 40.6499 36.4424 40.5241 36.109C40.3998 35.7756 40.2829 35.4774 40.1732 35.2127C40.1498 35.1498 40.0972 35.103 40.0123 35.0767C39.929 35.0489 39.8413 35.0358 39.7506 35.0358C39.6731 35.0358 39.5985 35.0445 39.5254 35.0635C39.4523 35.0811 39.3982 35.1001 39.3617 35.1176C39.2754 35.3355 39.1818 35.5768 39.0824 35.84C38.983 36.1032 38.8806 36.3737 38.7753 36.65C38.6715 36.9279 38.5706 37.1969 38.4756 37.4601C38.3805 37.7233 38.2928 37.966 38.2138 38.1897C38.1349 38.412 38.0676 38.6006 38.0135 38.7556C37.996 38.8053 37.9799 38.8521 37.9653 38.896C37.9521 38.9398 37.9448 38.9808 37.9448 39.0217C37.9448 39.108 37.9726 39.1709 38.0296 39.2089C38.0866 39.2469 38.151 39.2674 38.2241 39.2674C38.2738 39.2674 38.3162 39.2645 38.3498 39.2571C38.3835 39.2498 38.4171 39.2396 38.4493 39.2264C38.4727 39.1533 38.5034 39.0597 38.5443 38.9442C38.5852 38.8287 38.6276 38.703 38.6744 38.5699C38.7198 38.4354 38.7636 38.3082 38.8046 38.1854C38.8133 38.1576 38.8207 38.1356 38.8294 38.1108H40.6586L40.9642 39.0173C40.9964 39.108 41.0344 39.1723 41.0798 39.2118C41.1251 39.2498 41.1909 39.2703 41.2772 39.2703C41.34 39.2703 41.3985 39.2571 41.4512 39.2323C41.5038 39.2074 41.5447 39.1738 41.5769 39.1329C41.4862 38.8565 41.3824 38.5465 41.2669 38.2058C41.1514 37.8651 41.03 37.5142 40.9028 37.153V37.1516ZM39.2169 36.9951C39.3149 36.7158 39.4099 36.4439 39.5035 36.1807C39.5971 35.9175 39.6775 35.6908 39.7448 35.4993H39.7725C39.8266 35.6543 39.8968 35.8517 39.9802 36.0915C40.0635 36.3327 40.1556 36.593 40.2521 36.8752C40.3428 37.137 40.4291 37.3943 40.5139 37.6516H38.9844C39.0575 37.4455 39.135 37.2276 39.2169 36.9937V36.9951Z" fill="#252A34"/>
<path d="M47.5076 35.2302C47.1742 35.0737 46.7838 34.9948 46.3393 34.9948C46.1624 34.9948 45.9855 35.0021 45.8085 35.0152C45.6316 35.0284 45.4722 35.0591 45.3319 35.1044C45.2588 35.1278 45.2032 35.1585 45.1652 35.1965C45.1272 35.2346 45.1067 35.2916 45.1067 35.3632V38.8652C45.1067 39.0158 45.2017 39.1196 45.3933 39.1781C45.557 39.2278 45.731 39.2585 45.9138 39.2702C46.0981 39.2819 46.2604 39.2878 46.4007 39.2878C46.8409 39.2878 47.224 39.2088 47.5486 39.0494C47.8732 38.8901 48.1247 38.6488 48.3045 38.3242C48.4844 37.9996 48.5736 37.5902 48.5736 37.0945C48.5736 36.6266 48.4785 36.2391 48.2914 35.9291C48.1027 35.6206 47.8425 35.3881 47.5076 35.2302ZM47.5997 38.3841C47.3278 38.6766 46.9257 38.8228 46.3934 38.8228C46.2618 38.8228 46.1332 38.8184 46.0089 38.8096C45.8831 38.8009 45.7676 38.7819 45.6579 38.7555V35.5124C45.7486 35.4948 45.848 35.4802 45.9577 35.4714C46.0674 35.4627 46.1916 35.4583 46.332 35.4583C46.6405 35.4583 46.9213 35.5138 47.1728 35.625C47.4243 35.7361 47.6275 35.9116 47.7796 36.1499C47.9317 36.3882 48.0077 36.7026 48.0077 37.093C48.0077 37.6603 47.8717 38.0917 47.5983 38.3841H47.5997Z" fill="#252A34"/>
<path d="M54.8683 38.7497H52.8242V37.3197H54.4721C54.5408 37.3197 54.592 37.2977 54.6285 37.2509C54.6651 37.2056 54.6826 37.1471 54.6826 37.074C54.6826 37.0287 54.6753 36.9848 54.6621 36.9439C54.649 36.9029 54.6344 36.8737 54.6212 36.8547H52.8227V35.5402H54.6826C54.7513 35.5402 54.8025 35.5168 54.8391 35.4685C54.8756 35.4203 54.8932 35.3603 54.8932 35.2887C54.8932 35.2433 54.8859 35.1995 54.8727 35.1585C54.8595 35.1176 54.8449 35.0883 54.8318 35.0693H52.5697C52.4791 35.0693 52.406 35.0971 52.3519 35.1512C52.2978 35.2053 52.27 35.2784 52.27 35.3691V38.912C52.27 38.9983 52.2978 39.0699 52.3519 39.1269C52.406 39.184 52.4791 39.2118 52.5697 39.2118H54.7163C54.785 39.2118 54.8362 39.1884 54.8727 39.143C54.9093 39.0977 54.9268 39.0392 54.9268 38.9661C54.9268 38.9164 54.9195 38.8725 54.9063 38.833C54.8932 38.795 54.8786 38.7658 54.8654 38.7482L54.8683 38.7497Z" fill="#252A34"/>
<path d="M58.771 38.5113C58.7212 38.5113 58.6744 38.5172 58.6306 38.5289C58.5867 38.5406 58.5472 38.5552 58.5107 38.5728C58.4873 38.6956 58.4537 38.8403 58.4083 39.0085C58.363 39.1766 58.3133 39.3404 58.2621 39.5027C58.2095 39.6636 58.1627 39.8039 58.1217 39.9209C58.1846 39.9984 58.2665 40.0364 58.3674 40.0364C58.4683 40.0364 58.5604 39.975 58.6335 39.8522C58.6744 39.7879 58.7271 39.6899 58.79 39.5554C58.8528 39.4208 58.9099 39.2805 58.9567 39.1328C59.0049 38.9851 59.0283 38.8608 59.0283 38.7614C59.0283 38.6707 59.0049 38.6064 58.9596 38.5669C58.9142 38.5289 58.8499 38.5084 58.7695 38.5084L58.771 38.5113Z" fill="#252A34"/>
<path d="M70.1337 38.4968C70.0197 38.5831 69.8749 38.6606 69.698 38.7278C69.5211 38.7966 69.3149 38.8302 69.078 38.8302C68.6379 38.8302 68.2796 38.6898 68.0048 38.4076C67.7299 38.1254 67.5924 37.7058 67.5924 37.1472C67.5924 36.7743 67.6568 36.4629 67.7869 36.2099C67.917 35.9584 68.091 35.7683 68.3118 35.6411C68.5326 35.5139 68.7812 35.4496 69.0575 35.4496C69.312 35.4496 69.5196 35.4861 69.6804 35.5578C69.8413 35.6309 69.9787 35.7084 70.0928 35.7888C70.1425 35.7669 70.1864 35.7303 70.2258 35.6835C70.2639 35.6353 70.2843 35.5826 70.2843 35.5242C70.2843 35.4379 70.2302 35.3531 70.1249 35.2683C70.0182 35.1849 69.8691 35.1147 69.679 35.0606C69.4889 35.0065 69.2681 34.9788 69.0181 34.9788C68.6598 34.9788 68.3294 35.0592 68.0267 35.22C67.724 35.3809 67.4813 35.6236 67.2985 35.9453C67.1143 36.2684 67.0222 36.6676 67.0222 37.1443C67.0222 37.621 67.1114 38.0187 67.2883 38.336C67.4652 38.6533 67.7079 38.8931 68.0135 39.0554C68.3206 39.2162 68.6613 39.2966 69.0385 39.2966C69.3207 39.2966 69.5518 39.2689 69.7331 39.2118C69.9144 39.1548 70.0577 39.0905 70.163 39.0174C70.2215 38.9764 70.2639 38.934 70.2887 38.8916C70.3136 38.8477 70.3267 38.8039 70.3267 38.7586C70.3267 38.6957 70.3063 38.6387 70.2653 38.5919C70.2244 38.5436 70.1805 38.5114 70.1352 38.4924L70.1337 38.4968Z" fill="#252A34"/>
<path d="M76.6639 35.2273C76.3671 35.0636 76.0308 34.9817 75.6594 34.9817C75.288 34.9817 74.959 35.0636 74.6607 35.2273C74.3639 35.3911 74.1255 35.6324 73.9486 35.9526C73.7717 36.2728 73.6825 36.6691 73.6825 37.1414C73.6825 37.6137 73.7688 38.0099 73.9413 38.3301C74.1138 38.6504 74.3507 38.8916 74.6505 39.0554C74.9502 39.2191 75.2865 39.301 75.6579 39.301C76.0293 39.301 76.3715 39.2191 76.6698 39.0554C76.9666 38.8916 77.202 38.6504 77.3746 38.3301C77.5471 38.0099 77.6334 37.6137 77.6334 37.1414C77.6334 36.6691 77.5456 36.2728 77.3716 35.9526C77.1962 35.6324 76.9608 35.3911 76.6625 35.2273H76.6639ZM76.6873 38.3915C76.4329 38.684 76.0907 38.8317 75.6594 38.8317C75.228 38.8317 74.8917 38.6854 74.6373 38.3915C74.3829 38.0991 74.2557 37.6824 74.2557 37.1414C74.2557 36.6003 74.3844 36.1836 74.6402 35.8912C74.8961 35.5987 75.2368 35.4511 75.6594 35.4511C76.082 35.4511 76.4285 35.5973 76.6844 35.8912C76.9403 36.1836 77.069 36.6003 77.069 37.1414C77.069 37.6824 76.9417 38.0991 76.6873 38.3915Z" fill="#252A34"/>
<path d="M85.4283 37.931C85.4108 37.6634 85.3903 37.3914 85.3699 37.1136C85.3494 36.8358 85.3275 36.5726 85.3055 36.3196C85.2821 36.0681 85.2602 35.8488 85.2368 35.6616C85.2134 35.4759 85.1929 35.3443 85.1754 35.2668C85.1578 35.1893 85.1169 35.1338 85.0569 35.1001C84.9955 35.0665 84.9122 35.049 84.8084 35.049C84.7543 35.049 84.6943 35.0548 84.6314 35.0665C84.5671 35.0782 84.5159 35.0943 84.475 35.1177C84.339 35.4306 84.1723 35.8108 83.9749 36.2553C83.7775 36.7012 83.5787 37.1633 83.3783 37.6444H83.3506C83.2467 37.4031 83.1371 37.1472 83.023 36.8752C82.909 36.6033 82.7935 36.3298 82.675 36.0579C82.5566 35.7859 82.4396 35.5329 82.3212 35.3019C82.2802 35.2156 82.2232 35.1513 82.1515 35.1104C82.0784 35.0694 81.9907 35.049 81.8854 35.049C81.7992 35.049 81.7217 35.0621 81.6544 35.0899C81.5857 35.1177 81.5345 35.1469 81.4979 35.1791C81.4746 35.4335 81.4512 35.7186 81.4263 36.0345C81.4014 36.3503 81.378 36.6705 81.3546 36.9951C81.3313 37.3197 81.3122 37.6254 81.2962 37.9119C81.2801 38.1985 81.2669 38.4398 81.2552 38.6372C81.2435 38.8346 81.2377 38.9603 81.2377 39.0159C81.2377 39.089 81.2581 39.146 81.2991 39.1899C81.34 39.2323 81.4102 39.2542 81.5096 39.2542C81.5594 39.2542 81.6061 39.2499 81.6485 39.2411C81.691 39.2323 81.7275 39.2235 81.7538 39.2133C81.7772 38.8858 81.7962 38.5787 81.8123 38.2907C81.8284 38.0026 81.846 37.7204 81.8635 37.4455C81.881 37.1706 81.8986 36.8855 81.9147 36.5901C81.9308 36.2947 81.9454 35.9774 81.9585 35.6368H81.9863C82.096 35.9131 82.2393 36.264 82.4191 36.6852C82.599 37.1077 82.8081 37.5727 83.0493 38.0816C83.0727 38.1313 83.1122 38.1678 83.1692 38.1898C83.2263 38.2132 83.2906 38.2234 83.3637 38.2234C83.4266 38.2234 83.4851 38.2146 83.5377 38.1956C83.5904 38.1781 83.6313 38.1576 83.6635 38.1342C83.9311 37.5128 84.1518 37.0054 84.3244 36.612C84.4969 36.2187 84.6329 35.8985 84.7338 35.6485H84.7616C84.7747 35.8751 84.7908 36.169 84.8098 36.5272C84.8274 36.8855 84.8493 37.2803 84.8742 37.7087C84.899 38.1371 84.9253 38.5729 84.9531 39.013C84.9619 39.1036 84.9926 39.1665 85.0453 39.2001C85.0979 39.2338 85.1578 39.2513 85.2251 39.2513C85.2836 39.2513 85.3362 39.244 85.3816 39.2308C85.4269 39.2177 85.4708 39.1972 85.5117 39.1694C85.5073 39.0422 85.4971 38.8711 85.481 38.6547C85.4649 38.4383 85.4473 38.1971 85.4298 37.9295L85.4283 37.931Z" fill="#252A34"/>
<path d="M90.5987 34.9948C90.4218 34.9948 90.239 35.0035 90.0504 35.0225C89.8617 35.0401 89.7024 35.0708 89.5708 35.1117C89.4976 35.1351 89.4421 35.1658 89.4041 35.2038C89.3661 35.2419 89.3456 35.2989 89.3456 35.3705V38.9953C89.3456 39.0816 89.3704 39.1459 89.4202 39.1854C89.4699 39.2264 89.5444 39.2468 89.6453 39.2468C89.6994 39.2468 89.7492 39.241 89.7959 39.2293C89.8413 39.2176 89.8778 39.2074 89.9056 39.1986V37.7335H90.5943C90.9759 37.7335 91.2888 37.6764 91.5345 37.5624C91.7801 37.4483 91.9629 37.2875 92.0828 37.0784C92.2027 36.8693 92.2627 36.6251 92.2627 36.3429C92.2627 35.9291 92.1296 35.6016 91.8635 35.3588C91.5974 35.1161 91.1763 34.9948 90.6002 34.9948H90.5987ZM91.4029 37.0418C91.2026 37.1939 90.9218 37.2699 90.5577 37.2699H89.8968V35.5197C89.9919 35.5021 90.1001 35.4875 90.22 35.4758C90.3399 35.4641 90.4612 35.4583 90.5841 35.4583C90.9423 35.4583 91.2187 35.5299 91.4117 35.6732C91.6047 35.8165 91.7012 36.0417 91.7012 36.3517C91.7012 36.6617 91.6018 36.8912 91.4014 37.0433L91.4029 37.0418Z" fill="#252A34"/>
<path d="M98.5282 38.7497H96.4841V37.3197H98.132C98.2007 37.3197 98.2519 37.2977 98.2884 37.2509C98.325 37.2056 98.3425 37.1471 98.3425 37.074C98.3425 37.0287 98.3352 36.9848 98.3221 36.9439C98.3089 36.9029 98.2943 36.8737 98.2811 36.8547H96.4826V35.5402H98.3425C98.4113 35.5402 98.4624 35.5168 98.499 35.4685C98.5355 35.4203 98.5531 35.3603 98.5531 35.2887C98.5531 35.2433 98.5458 35.1995 98.5326 35.1585C98.5195 35.1176 98.5048 35.0883 98.4917 35.0693H96.2297C96.139 35.0693 96.0659 35.0971 96.0118 35.1512C95.9577 35.2053 95.9299 35.2784 95.9299 35.3691V38.912C95.9299 38.9983 95.9577 39.0699 96.0118 39.1269C96.0659 39.184 96.139 39.2118 96.2297 39.2118H98.3762C98.4449 39.2118 98.4961 39.1884 98.5326 39.143C98.5692 39.0977 98.5867 39.0392 98.5867 38.9661C98.5867 38.9164 98.5794 38.8725 98.5662 38.833C98.5531 38.795 98.5385 38.7658 98.5253 38.7482L98.5282 38.7497Z" fill="#252A34"/>
<path d="M104.998 35.0708H102.049C101.98 35.0708 101.929 35.0927 101.893 35.1351C101.856 35.179 101.839 35.2389 101.839 35.315C101.839 35.3603 101.846 35.4042 101.859 35.4451C101.872 35.4861 101.887 35.5182 101.9 35.5402H103.174V38.9939C103.174 39.0802 103.199 39.1445 103.248 39.184C103.298 39.2249 103.373 39.2454 103.473 39.2454C103.523 39.2454 103.573 39.2395 103.62 39.2278C103.668 39.2161 103.703 39.2059 103.725 39.1971V35.5387H104.849C104.918 35.5387 104.969 35.5153 105.006 35.4671C105.042 35.4188 105.06 35.3588 105.06 35.2872C105.06 35.2419 105.053 35.198 105.039 35.1571C105.026 35.1161 105.012 35.0869 104.998 35.0679V35.0708Z" fill="#252A34"/>
<path d="M111.239 38.7497H109.195V37.3197H110.843C110.912 37.3197 110.963 37.2977 110.999 37.2509C111.036 37.2056 111.053 37.1471 111.053 37.074C111.053 37.0287 111.046 36.9848 111.033 36.9439C111.02 36.9029 111.005 36.8737 110.992 36.8547H109.194V35.5402H111.053C111.122 35.5402 111.173 35.5168 111.21 35.4685C111.246 35.4203 111.264 35.3603 111.264 35.2887C111.264 35.2433 111.257 35.1995 111.244 35.1585C111.23 35.1176 111.216 35.0883 111.203 35.0693H108.941C108.85 35.0693 108.777 35.0971 108.723 35.1512C108.669 35.2053 108.641 35.2784 108.641 35.3691V38.912C108.641 38.9983 108.669 39.0699 108.723 39.1269C108.777 39.184 108.85 39.2118 108.941 39.2118H111.087C111.156 39.2118 111.207 39.1884 111.244 39.143C111.28 39.0977 111.298 39.0392 111.298 38.9661C111.298 38.9164 111.29 38.8725 111.277 38.833C111.264 38.795 111.249 38.7658 111.236 38.7482L111.239 38.7497Z" fill="#252A34"/>
<path d="M109.346 34.7228C109.477 34.6044 109.597 34.4903 109.704 34.3792C109.811 34.2681 109.9 34.1745 109.973 34.097L110.341 34.5196C110.404 34.5927 110.46 34.6424 110.505 34.6702C110.55 34.698 110.599 34.7111 110.648 34.7111C110.717 34.7111 110.773 34.6892 110.815 34.6468C110.858 34.6044 110.879 34.5488 110.879 34.4801L110.321 33.847C110.267 33.7885 110.214 33.7432 110.164 33.7139C110.115 33.6847 110.053 33.67 109.98 33.67C109.866 33.67 109.759 33.7198 109.66 33.8207L109.258 34.2228C109.208 34.2725 109.166 34.3178 109.132 34.3587C109.098 34.3997 109.081 34.4479 109.081 34.502C109.081 34.5649 109.106 34.6161 109.156 34.6556C109.205 34.6936 109.27 34.7184 109.346 34.7272V34.7228Z" fill="#252A34"/>
<path d="M117.962 35.0358C117.908 35.0358 117.859 35.0416 117.812 35.0533C117.766 35.065 117.73 35.0752 117.702 35.084V36.4599C117.702 36.8328 117.705 37.2174 117.712 37.6151C117.718 37.9704 117.742 38.3184 117.78 38.6606L117.75 38.6679C117.709 38.5816 117.655 38.4719 117.587 38.3374C117.518 38.2029 117.445 38.0625 117.366 37.9148C117.287 37.7672 117.211 37.6326 117.138 37.5098L115.836 35.3297C115.772 35.2156 115.702 35.1381 115.626 35.0942C115.548 35.0504 115.456 35.0299 115.346 35.0299C115.269 35.0299 115.197 35.0416 115.132 35.0635C115.066 35.0869 115.015 35.1162 114.978 35.1527V39.0012C114.978 39.0875 115.003 39.1504 115.053 39.1884C115.102 39.2264 115.177 39.2469 115.278 39.2469C115.327 39.2469 115.377 39.241 115.424 39.2294C115.472 39.2177 115.507 39.2074 115.529 39.1986V37.1618C115.529 36.9805 115.526 36.7889 115.519 36.5857C115.512 36.3839 115.501 36.188 115.488 35.9964C115.478 35.8561 115.466 35.7347 115.455 35.6221L115.482 35.6148C115.523 35.7011 115.58 35.8107 115.652 35.9452C115.725 36.0798 115.801 36.2201 115.883 36.3678C115.965 36.5155 116.04 36.65 116.108 36.7729L117.402 38.953C117.465 39.067 117.537 39.1445 117.613 39.1884C117.69 39.2308 117.782 39.2527 117.892 39.2527C117.97 39.2527 118.04 39.241 118.103 39.2191C118.166 39.1972 118.218 39.1694 118.259 39.1372V35.2814C118.259 35.1951 118.234 35.1323 118.185 35.0942C118.135 35.0562 118.06 35.0358 117.959 35.0358H117.962Z" fill="#252A34"/>
<path d="M125.075 38.4968C124.96 38.5831 124.816 38.6606 124.639 38.7278C124.462 38.7966 124.254 38.8302 124.019 38.8302C123.579 38.8302 123.22 38.6898 122.946 38.4076C122.671 38.1254 122.533 37.7058 122.533 37.1472C122.533 36.7743 122.598 36.4629 122.728 36.2099C122.858 35.9584 123.032 35.7683 123.253 35.6411C123.473 35.5139 123.722 35.4496 123.998 35.4496C124.253 35.4496 124.46 35.4861 124.621 35.5578C124.782 35.6309 124.92 35.7084 125.034 35.7888C125.083 35.7669 125.127 35.7303 125.167 35.6835C125.205 35.6353 125.225 35.5826 125.225 35.5242C125.225 35.4379 125.171 35.3531 125.066 35.2683C124.959 35.1849 124.81 35.1147 124.62 35.0606C124.43 35.0065 124.209 34.9788 123.959 34.9788C123.601 34.9788 123.27 35.0592 122.967 35.22C122.665 35.3809 122.422 35.6236 122.239 35.9453C122.055 36.2684 121.963 36.6676 121.963 37.1443C121.963 37.621 122.052 38.0187 122.229 38.336C122.406 38.6533 122.649 38.8931 122.954 39.0554C123.261 39.2162 123.602 39.2966 123.979 39.2966C124.262 39.2966 124.493 39.2689 124.674 39.2118C124.855 39.1548 124.998 39.0905 125.104 39.0174C125.162 38.9764 125.205 38.934 125.23 38.8916C125.254 38.8477 125.268 38.8039 125.268 38.7586C125.268 38.6957 125.247 38.6387 125.206 38.5919C125.165 38.5436 125.123 38.5114 125.076 38.4924L125.075 38.4968Z" fill="#252A34"/>
<path d="M129.196 35.0358C129.142 35.0358 129.091 35.0416 129.043 35.0533C128.995 35.065 128.96 35.0752 128.938 35.084V38.9939C128.938 39.0802 128.962 39.1446 129.012 39.184C129.062 39.225 129.136 39.2454 129.237 39.2454C129.291 39.2454 129.341 39.2396 129.387 39.2279C129.432 39.2162 129.465 39.206 129.489 39.1972V35.2873C129.489 35.1966 129.465 35.1323 129.417 35.0928C129.369 35.0548 129.296 35.0343 129.196 35.0343V35.0358Z" fill="#252A34"/>
<path d="M135.994 37.1516C135.867 36.7904 135.741 36.4424 135.616 36.109C135.491 35.7756 135.374 35.4774 135.265 35.2127C135.241 35.1498 135.189 35.103 135.104 35.0767C135.02 35.0489 134.933 35.0358 134.842 35.0358C134.765 35.0358 134.69 35.0445 134.617 35.0635C134.544 35.0811 134.49 35.1001 134.453 35.1176C134.367 35.3355 134.273 35.5768 134.174 35.84C134.074 36.1032 133.972 36.3737 133.867 36.65C133.763 36.9279 133.662 37.1969 133.567 37.4601C133.472 37.7233 133.384 37.966 133.305 38.1897C133.226 38.412 133.159 38.6006 133.105 38.7556C133.087 38.8053 133.071 38.8521 133.057 38.896C133.044 38.9398 133.036 38.9808 133.036 39.0217C133.036 39.108 133.064 39.1709 133.121 39.2089C133.178 39.2469 133.242 39.2674 133.315 39.2674C133.365 39.2674 133.408 39.2645 133.441 39.2571C133.475 39.2498 133.508 39.2396 133.541 39.2264C133.564 39.1533 133.595 39.0597 133.636 38.9442C133.677 38.8287 133.719 38.703 133.766 38.5699C133.811 38.4354 133.855 38.3082 133.896 38.1854C133.905 38.1576 133.912 38.1356 133.921 38.1108H135.75L136.056 39.0173C136.088 39.108 136.126 39.1723 136.171 39.2118C136.216 39.2498 136.282 39.2703 136.369 39.2703C136.431 39.2703 136.49 39.2571 136.543 39.2323C136.595 39.2074 136.636 39.1738 136.668 39.1329C136.578 38.8565 136.474 38.5465 136.358 38.2058C136.243 37.8651 136.121 37.5142 135.994 37.153V37.1516ZM134.308 36.9951C134.406 36.7158 134.501 36.4439 134.595 36.1807C134.688 35.9175 134.769 35.6908 134.836 35.4993H134.864C134.918 35.6543 134.988 35.8517 135.072 36.0915C135.155 36.3327 135.247 36.593 135.344 36.8752C135.434 37.137 135.52 37.3943 135.605 37.6516H134.076C134.149 37.4455 134.226 37.2276 134.308 36.9937V36.9951Z" fill="#252A34"/>
<path d="M147.562 38.7497H145.518V37.3197H147.165C147.234 37.3197 147.285 37.2977 147.322 37.2509C147.358 37.2056 147.376 37.1471 147.376 37.074C147.376 37.0287 147.369 36.9848 147.356 36.9439C147.342 36.9029 147.328 36.8737 147.315 36.8547H145.516V35.5402H147.376C147.445 35.5402 147.496 35.5168 147.532 35.4685C147.569 35.4203 147.587 35.3603 147.587 35.2887C147.587 35.2433 147.579 35.1995 147.566 35.1585C147.553 35.1176 147.538 35.0883 147.525 35.0693H145.263C145.172 35.0693 145.099 35.0971 145.045 35.1512C144.991 35.2053 144.963 35.2784 144.963 35.3691V38.912C144.963 38.9983 144.991 39.0699 145.045 39.1269C145.099 39.184 145.172 39.2118 145.263 39.2118H147.41C147.478 39.2118 147.53 39.1884 147.566 39.143C147.603 39.0977 147.62 39.0392 147.62 38.9661C147.62 38.9164 147.613 38.8725 147.6 38.833C147.587 38.795 147.572 38.7658 147.559 38.7482L147.562 38.7497Z" fill="#252A34"/>
<path d="M156.342 35.0358C156.288 35.0358 156.237 35.0416 156.189 35.0533C156.14 35.065 156.105 35.0752 156.083 35.084V38.9939C156.083 39.0802 156.108 39.1446 156.158 39.184C156.208 39.225 156.282 39.2454 156.383 39.2454C156.437 39.2454 156.487 39.2396 156.534 39.2279C156.579 39.2162 156.613 39.206 156.636 39.1972V35.2873C156.636 35.1966 156.613 35.1323 156.564 35.0928C156.516 35.0548 156.443 35.0343 156.344 35.0343L156.342 35.0358Z" fill="#252A34"/>
<path d="M163.57 35.0358C163.516 35.0358 163.466 35.0416 163.419 35.0533C163.374 35.065 163.337 35.0752 163.31 35.084V36.4599C163.31 36.8328 163.313 37.2174 163.32 37.6151C163.326 37.9704 163.349 38.3184 163.387 38.6606L163.358 38.6679C163.317 38.5816 163.263 38.4719 163.194 38.3374C163.125 38.2029 163.052 38.0625 162.973 37.9148C162.894 37.7672 162.818 37.6326 162.745 37.5098L161.444 35.3297C161.38 35.2156 161.309 35.1381 161.233 35.0942C161.156 35.0504 161.064 35.0299 160.954 35.0299C160.877 35.0299 160.805 35.0416 160.739 35.0635C160.673 35.0869 160.622 35.1162 160.586 35.1527V39.0012C160.586 39.0875 160.61 39.1504 160.66 39.1884C160.71 39.2264 160.784 39.2469 160.885 39.2469C160.935 39.2469 160.985 39.241 161.032 39.2294C161.08 39.2177 161.115 39.2074 161.137 39.1986V37.1618C161.137 36.9805 161.134 36.7889 161.127 36.5857C161.119 36.3839 161.109 36.188 161.096 35.9964C161.086 35.8561 161.074 35.7347 161.062 35.6221L161.09 35.6148C161.131 35.7011 161.188 35.8107 161.26 35.9452C161.333 36.0798 161.409 36.2201 161.491 36.3678C161.573 36.5155 161.647 36.65 161.716 36.7729L163.01 38.953C163.073 39.067 163.144 39.1445 163.22 39.1884C163.298 39.2308 163.39 39.2527 163.5 39.2527C163.577 39.2527 163.647 39.241 163.71 39.2191C163.773 39.1972 163.826 39.1694 163.867 39.1372V35.2814C163.867 35.1951 163.842 35.1323 163.792 35.0942C163.742 35.0562 163.668 35.0358 163.567 35.0358H163.57Z" fill="#252A34"/>
<path d="M170.549 35.2273C170.252 35.0636 169.916 34.9817 169.544 34.9817C169.173 34.9817 168.844 35.0636 168.546 35.2273C168.249 35.3911 168.011 35.6324 167.834 35.9526C167.657 36.2728 167.568 36.6691 167.568 37.1414C167.568 37.6137 167.654 38.0099 167.826 38.3301C167.999 38.6504 168.236 38.8916 168.536 39.0554C168.835 39.2191 169.172 39.301 169.544 39.301C169.917 39.301 170.258 39.2191 170.556 39.0554C170.853 38.8916 171.089 38.6504 171.261 38.3301C171.434 38.0099 171.52 37.6137 171.52 37.1414C171.52 36.6691 171.432 36.2728 171.258 35.9526C171.083 35.6324 170.847 35.3911 170.549 35.2273ZM170.572 38.3915C170.318 38.684 169.976 38.8317 169.544 38.8317C169.113 38.8317 168.777 38.6854 168.522 38.3915C168.268 38.0991 168.141 37.6824 168.141 37.1414C168.141 36.6003 168.269 36.1836 168.525 35.8912C168.781 35.5987 169.122 35.4511 169.544 35.4511C169.967 35.4511 170.314 35.5973 170.569 35.8912C170.825 36.1836 170.954 36.6003 170.954 37.1414C170.954 37.6824 170.827 38.0991 170.572 38.3915Z" fill="#252A34"/>
<path d="M177.992 35.0299C177.946 35.0299 177.904 35.0328 177.866 35.0401C177.828 35.0475 177.793 35.0592 177.761 35.0782C177.657 35.4817 177.537 35.8985 177.402 36.3254C177.268 36.7524 177.13 37.1662 176.987 37.5683C176.844 37.9704 176.706 38.3433 176.575 38.6883H176.547C176.325 38.121 176.119 37.5581 175.93 36.9995C175.741 36.4409 175.547 35.8663 175.348 35.2756C175.32 35.1937 175.287 35.1323 175.246 35.0913C175.205 35.0504 175.142 35.0299 175.055 35.0299C174.987 35.0299 174.927 35.046 174.871 35.0782C174.817 35.1103 174.776 35.144 174.748 35.1805C174.817 35.4028 174.898 35.6587 174.99 35.9467C175.083 36.2348 175.184 36.5331 175.292 36.8387C175.402 37.1457 175.512 37.4455 175.623 37.7379C175.734 38.0303 175.838 38.295 175.936 38.5319C176.034 38.7688 176.118 38.9559 176.192 39.0978C176.214 39.1475 176.26 39.1855 176.328 39.2103C176.396 39.2352 176.472 39.2484 176.559 39.2484C176.636 39.2484 176.706 39.2381 176.769 39.2177C176.832 39.1972 176.876 39.1782 176.899 39.1592C176.958 39.0451 177.031 38.8828 177.117 38.6723C177.203 38.4617 177.298 38.2204 177.404 37.9499C177.508 37.6794 177.61 37.4045 177.711 37.1223C177.81 36.8401 177.902 36.5725 177.987 36.3181C178.071 36.0637 178.138 35.8429 178.188 35.6572C178.237 35.4715 178.262 35.3443 178.262 35.2756C178.262 35.1937 178.237 35.1323 178.188 35.0913C178.138 35.0504 178.072 35.0299 177.99 35.0299H177.992Z" fill="#252A34"/>
<path d="M184.156 37.1516C184.029 36.7904 183.903 36.4424 183.778 36.109C183.653 35.7756 183.536 35.4774 183.427 35.2127C183.403 35.1498 183.351 35.103 183.266 35.0767C183.182 35.0489 183.095 35.0358 183.004 35.0358C182.927 35.0358 182.852 35.0445 182.779 35.0635C182.706 35.0811 182.652 35.1001 182.615 35.1176C182.529 35.3355 182.435 35.5768 182.336 35.84C182.236 36.1032 182.134 36.3737 182.029 36.65C181.925 36.9279 181.824 37.1969 181.729 37.4601C181.634 37.7233 181.546 37.966 181.467 38.1897C181.388 38.412 181.321 38.6006 181.267 38.7556C181.249 38.8053 181.233 38.8521 181.219 38.896C181.206 38.9398 181.198 38.9808 181.198 39.0217C181.198 39.108 181.226 39.1709 181.283 39.2089C181.34 39.2469 181.404 39.2674 181.478 39.2674C181.527 39.2674 181.57 39.2645 181.603 39.2571C181.637 39.2498 181.671 39.2396 181.703 39.2264C181.726 39.1533 181.757 39.0597 181.798 38.9442C181.839 38.8287 181.881 38.703 181.928 38.5699C181.973 38.4354 182.017 38.3082 182.058 38.1854C182.067 38.1576 182.074 38.1356 182.083 38.1108H183.912L184.218 39.0173C184.25 39.108 184.288 39.1723 184.333 39.2118C184.379 39.2498 184.444 39.2703 184.531 39.2703C184.593 39.2703 184.652 39.2571 184.705 39.2323C184.757 39.2074 184.798 39.1738 184.83 39.1329C184.74 38.8565 184.636 38.5465 184.52 38.2058C184.405 37.8651 184.283 37.5142 184.156 37.153V37.1516ZM182.47 36.9951C182.568 36.7158 182.663 36.4439 182.757 36.1807C182.851 35.9175 182.931 35.6908 182.998 35.4993H183.026C183.08 35.6543 183.15 35.8517 183.234 36.0915C183.317 36.3327 183.409 36.593 183.506 36.8752C183.596 37.137 183.683 37.3943 183.767 37.6516H182.238C182.311 37.4455 182.388 37.2276 182.47 36.9937V36.9951Z" fill="#252A34"/>
<path d="M191.187 38.4968C191.072 38.5831 190.928 38.6606 190.751 38.7278C190.574 38.7966 190.368 38.8302 190.131 38.8302C189.691 38.8302 189.332 38.6898 189.058 38.4076C188.783 38.1254 188.645 37.7058 188.645 37.1472C188.645 36.7743 188.71 36.4629 188.84 36.2099C188.97 35.9584 189.144 35.7683 189.365 35.6411C189.585 35.5139 189.834 35.4496 190.11 35.4496C190.365 35.4496 190.572 35.4861 190.733 35.5578C190.894 35.6309 191.032 35.7084 191.146 35.7888C191.195 35.7669 191.239 35.7303 191.279 35.6835C191.317 35.6353 191.337 35.5826 191.337 35.5242C191.337 35.4379 191.283 35.3531 191.178 35.2683C191.071 35.1849 190.922 35.1147 190.732 35.0606C190.542 35.0065 190.321 34.9788 190.071 34.9788C189.713 34.9788 189.382 35.0592 189.079 35.22C188.777 35.3809 188.534 35.6236 188.351 35.9453C188.167 36.2684 188.075 36.6676 188.075 37.1443C188.075 37.621 188.164 38.0187 188.341 38.336C188.518 38.6533 188.761 38.8931 189.066 39.0554C189.312 39.1841 189.582 39.2601 189.873 39.2849C189.911 39.3361 189.945 39.3902 189.966 39.4472C189.999 39.5379 190.017 39.6227 190.017 39.6987C190.017 39.8172 189.979 39.9108 189.904 39.981C189.83 40.0511 189.71 40.0862 189.546 40.0862H189.444C189.416 40.1316 189.403 40.1857 189.403 40.25C189.403 40.3275 189.433 40.3874 189.495 40.4298C189.556 40.4723 189.644 40.4942 189.756 40.4942C189.974 40.4942 190.151 40.4298 190.287 40.3026C190.423 40.1754 190.492 40.0029 190.492 39.785C190.492 39.6446 190.464 39.5145 190.41 39.3961C190.393 39.3566 190.368 39.32 190.343 39.2849C190.512 39.2732 190.662 39.2484 190.786 39.2089C190.967 39.1519 191.11 39.0875 191.216 39.0144C191.274 38.9735 191.317 38.9311 191.342 38.8887C191.366 38.8448 191.38 38.801 191.38 38.7556C191.38 38.6928 191.359 38.6357 191.318 38.5889C191.277 38.5407 191.235 38.5085 191.188 38.4895L191.187 38.4968Z" fill="#252A34"/>
<path d="M195.724 34.4772C195.787 34.5182 195.86 34.5386 195.942 34.5386H195.983C196 34.4611 196.028 34.3983 196.064 34.3471C196.101 34.2974 196.159 34.2725 196.241 34.2725C196.314 34.2725 196.396 34.2915 196.487 34.331C196.578 34.369 196.677 34.41 196.787 34.4509C196.896 34.4918 197.013 34.5123 197.141 34.5123C197.29 34.5123 197.411 34.4743 197.502 34.3968C197.592 34.3193 197.638 34.217 197.638 34.0897C197.638 33.9947 197.606 33.9274 197.543 33.8894C197.478 33.8514 197.407 33.8309 197.325 33.8309H197.284C197.266 33.904 197.237 33.9655 197.199 34.0152C197.161 34.0649 197.1 34.0897 197.019 34.0897C196.942 34.0897 196.86 34.0707 196.771 34.0313C196.681 33.9932 196.586 33.9538 196.484 33.9157C196.382 33.8777 196.268 33.8573 196.14 33.8573C196.054 33.8573 195.971 33.8748 195.892 33.9084C195.813 33.9421 195.749 33.9903 195.702 34.0517C195.654 34.1131 195.63 34.1892 195.63 34.2798C195.63 34.3705 195.662 34.4363 195.725 34.4772H195.724Z" fill="#252A34"/>
<path d="M197.733 37.1516C197.606 36.7904 197.48 36.4424 197.354 36.109C197.23 35.7756 197.113 35.4774 197.003 35.2127C196.98 35.1498 196.927 35.103 196.842 35.0767C196.757 35.0489 196.671 35.0358 196.581 35.0358C196.503 35.0358 196.428 35.0445 196.355 35.0635C196.282 35.0811 196.228 35.1001 196.192 35.1176C196.105 35.3355 196.012 35.5768 195.912 35.84C195.813 36.1032 195.711 36.3737 195.605 36.65C195.501 36.9279 195.401 37.1969 195.306 37.4601C195.21 37.7233 195.123 37.966 195.044 38.1897C194.965 38.412 194.898 38.6006 194.843 38.7556C194.826 38.8053 194.81 38.8521 194.795 38.896C194.782 38.9398 194.775 38.9808 194.775 39.0217C194.775 39.108 194.803 39.1709 194.86 39.2089C194.917 39.2469 194.981 39.2674 195.054 39.2674C195.104 39.2674 195.146 39.2645 195.18 39.2571C195.213 39.2498 195.247 39.2396 195.279 39.2264C195.303 39.1533 195.333 39.0597 195.374 38.9442C195.415 38.8287 195.458 38.703 195.504 38.5699C195.55 38.4354 195.594 38.3082 195.635 38.1854C195.643 38.1576 195.651 38.1356 195.659 38.1108H197.489L197.794 39.0173C197.826 39.108 197.864 39.1723 197.91 39.2118C197.955 39.2498 198.021 39.2703 198.107 39.2703C198.17 39.2703 198.228 39.2571 198.281 39.2323C198.334 39.2074 198.375 39.1738 198.407 39.1329C198.316 38.8565 198.212 38.5465 198.097 38.2058C197.981 37.8651 197.86 37.5142 197.733 37.153V37.1516ZM196.047 36.9951C196.145 36.7158 196.24 36.4439 196.333 36.1807C196.427 35.9175 196.507 35.6908 196.575 35.4993H196.603C196.657 35.6543 196.727 35.8517 196.81 36.0915C196.893 36.3327 196.986 36.593 197.082 36.8752C197.173 37.137 197.259 37.3943 197.344 37.6516H195.814C195.887 37.4455 195.965 37.2276 196.047 36.9937V36.9951Z" fill="#252A34"/>
<path d="M205.339 35.9526C205.164 35.6324 204.928 35.3911 204.63 35.2273C204.333 35.0636 203.997 34.9817 203.625 34.9817C203.254 34.9817 202.925 35.0636 202.627 35.2273C202.33 35.3911 202.092 35.6324 201.915 35.9526C201.738 36.2728 201.649 36.6691 201.649 37.1414C201.649 37.6137 201.735 38.0099 201.907 38.3301C202.08 38.6504 202.317 38.8916 202.617 39.0554C202.916 39.2191 203.253 39.301 203.625 39.301C203.998 39.301 204.339 39.2191 204.637 39.0554C204.934 38.8916 205.17 38.6504 205.342 38.3301C205.515 38.0099 205.601 37.6137 205.601 37.1414C205.601 36.6691 205.513 36.2728 205.339 35.9526ZM204.655 38.3915C204.4 38.684 204.058 38.8317 203.627 38.8317C203.196 38.8317 202.859 38.6854 202.605 38.3915C202.35 38.0991 202.223 37.6824 202.223 37.1414C202.223 36.6003 202.352 36.1836 202.608 35.8912C202.864 35.5987 203.204 35.4511 203.627 35.4511C204.049 35.4511 204.396 35.5973 204.652 35.8912C204.908 36.1836 205.036 36.6003 205.036 37.1414C205.036 37.6824 204.909 38.0991 204.655 38.3915Z" fill="#252A34"/>
<path d="M155.845 9.47061C154.645 8.71758 153.137 8.34033 151.324 8.34033C149.676 8.34033 148.209 8.76437 146.927 9.61245C145.643 10.4605 144.636 11.5908 143.908 13.0033C143.178 14.4158 142.812 15.9584 142.812 17.6312C142.812 18.8799 143.036 20.0628 143.484 21.1814C143.931 22.3 144.573 23.2884 145.408 24.1482C146.244 25.008 147.221 25.6791 148.34 26.1617C149.458 26.6442 150.688 26.8854 152.03 26.8854C152.948 26.8854 153.826 26.7378 154.662 26.4439C155.497 26.15 156.24 25.7844 156.888 25.3487C157.535 24.9129 158.024 24.4962 158.353 24.0956V20.9518C157.598 21.7283 156.676 22.4418 155.58 23.0881C154.485 23.7359 153.302 24.059 152.03 24.059C150.758 24.059 149.686 23.7593 148.745 23.1583C147.803 22.5573 147.078 21.7692 146.572 20.791C146.222 20.1154 145.996 19.4034 145.887 18.6547H159.446V16.9235C159.446 15.299 159.147 13.8382 158.546 12.5442C157.945 11.2487 157.044 10.2251 155.844 9.47061H155.845ZM145.942 16.1821C146.051 15.5709 146.231 14.9875 146.484 14.4333C146.931 13.4566 147.568 12.667 148.392 12.0675C149.217 11.4665 150.194 11.1668 151.324 11.1668C152.149 11.1668 152.937 11.3495 153.691 11.7151C154.444 12.0806 155.086 12.6275 155.616 13.3571C156.145 14.0868 156.469 15.0299 156.586 16.1836H145.942V16.1821Z" fill="#252A34"/>
<path d="M167.392 9.58024C166.426 10.2865 165.602 11.2281 164.92 12.4067V8.87399H162.023V26.5345H164.92V15.8677C165.579 14.6906 166.279 13.6773 167.021 12.8292C167.762 11.9812 168.734 11.5571 169.935 11.5571C170.336 11.5571 170.723 11.6156 171.1 11.7341C171.477 11.8525 171.842 12.0163 172.195 12.2283V8.87253C171.653 8.63711 171.042 8.51868 170.359 8.51868C169.346 8.51868 168.357 8.87253 167.392 9.57877V9.58024Z" fill="#252A34"/>
<path d="M185.243 9.47061C184.042 8.71758 182.535 8.34033 180.722 8.34033C179.074 8.34033 177.607 8.76437 176.325 9.61245C175.041 10.4605 174.033 11.5908 173.305 13.0033C172.576 14.4158 172.21 15.9584 172.21 17.6312C172.21 18.8799 172.434 20.0628 172.881 21.1814C173.329 22.3 173.971 23.2884 174.805 24.1482C175.642 25.008 176.619 25.6791 177.737 26.1617C178.856 26.6442 180.085 26.8854 181.428 26.8854C182.346 26.8854 183.223 26.7378 184.06 26.4439C184.895 26.15 185.637 25.7844 186.285 25.3487C186.933 24.9129 187.421 24.4962 187.75 24.0956V20.9518C186.996 21.7283 186.073 22.4418 184.978 23.0881C183.883 23.7359 182.7 24.059 181.428 24.059C180.156 24.059 179.084 23.7593 178.142 23.1583C177.201 22.5573 176.475 21.7692 175.969 20.791C175.62 20.1154 175.393 19.4034 175.285 18.6547H188.844V16.9235C188.844 15.299 188.544 13.8382 187.943 12.5442C187.342 11.2487 186.442 10.2251 185.241 9.47061H185.243ZM175.339 16.1821C175.449 15.5709 175.629 14.9875 175.882 14.4333C176.329 13.4566 176.965 12.667 177.79 12.0675C178.615 11.4665 179.591 11.1668 180.722 11.1668C181.546 11.1668 182.334 11.3495 183.089 11.7151C183.842 12.0806 184.484 12.6275 185.013 13.3571C185.542 14.0868 185.867 15.0299 185.984 16.1836H175.339V16.1821Z" fill="#252A34"/>
<path d="M205.249 9.6461V8.69275H190.802V11.4124H200.374L190.096 25.3999V26.3547H205.601V23.635H194.617L205.249 9.6461Z" fill="#252A34"/>
<path d="M141.457 5.72445C140.947 4.63949 140.264 3.70807 139.408 2.93018C138.553 2.15229 137.597 1.55279 136.538 1.13167C135.48 0.710557 134.4 0.5 133.304 0.5H123.083V26.147H126.528V16.8723C127.116 17.1311 127.86 17.3899 128.767 17.6487C129.928 17.9806 131.248 18.1459 132.729 18.1459C134.49 18.1459 136.091 17.7759 137.532 17.036C138.974 16.2962 140.116 15.2697 140.958 13.9552C141.801 12.6407 142.222 11.1039 142.222 9.34194C142.222 8.01572 141.966 6.8094 141.456 5.72445H141.457ZM137.113 13.5136C136.054 14.4845 134.554 14.9685 132.615 14.9685C131.314 14.9685 130.05 14.8091 128.825 14.4903C127.875 14.2432 127.11 13.9917 126.528 13.7359V3.7534H132.346C133.443 3.7534 134.476 3.99612 135.447 4.48011C136.417 4.96557 137.202 5.62209 137.802 6.45116C138.401 7.28023 138.701 8.24382 138.701 9.34047C138.701 11.1521 138.171 12.5427 137.113 13.5136Z" fill="#252A34"/>
</g>
<defs>
<clipPath id="clip0_42_1010">
<rect width="204.828" height="40" fill="white" transform="translate(0.772705 0.5)"/>
</clipPath>
</defs>
</svg>
